# xmcd CD database file
#
# Track frame offsets:
#	150
#	14828
#	25276
#	38637
#	52556
#	65953
#	79981
#	92335
#	106596
#	121223
#	135219
#	150000
#	161369
#	175318
#	195630
#	205945
#	218699
#	232121
#	245896
#	259237
#
# Disc length: 3662 seconds
#
# Revision: 3
# Processed by: cddbd v1.5.2PL0 Copyright (c) Steve Scherf et al.
# Submitted via: CDex 1.51
#
DISCID=030e4c14
DTITLE=Various Artist - Jazz Legends  [CD 1-3]
DYEAR=2002
DGENRE=Jazz
TTITLE0=Duke Ellington and His Orchestra  - It Don't Mean A Thing If It Ain't Got That Swing
TTITLE1=Art Tatum - Tiger Rag
TTITLE2=Django Reinhardt and The Quintet Of The Hot Club Of France - You're Driving Me Crazy
TTITLE3=Coleman Hawkins and His Orchestra - Body and Soul
TTITLE4=Johnny Hodges - Jeep's Blues
TTITLE5=Teddy Wilson Quartet - Ain't Misbehavin'
TTITLE6=Louis Jordan and His Tympany Five - Caldonia
TTITLE7=Charlie Parker Septet featuring Miles Davis - A Night In Tunisia
TTITLE8=Thelonious Monk Quintet  - 'Round Midnight
TTITLE9=Wardell Gray Quartet - The Man I Love
TTITLE10=Fletcher Henderson - Honeysuckle Rose
TTITLE11=Count Basie and His Orchestra - Clap Hands Here Comes Charlie
TTITLE12=Coleman Hawkins and His Orchestra featuring Dizzy Gillespie - Woody 'N' You
TTITLE13=Red Norvo and His Selected Sextet - Slam Slam Blues
TTITLE14=Lionel Hampton and His Orchestra - When Lights Are Ow
TTITLE15=Benny Goodman Sextet - Seven Come Eleven
TTITLE16=Sidney Bechet - Maple Leaf Rag
TTITLE17=Duke Ellington and His Orchestra - Harlem Air Shaft
TTITLE18=Lennie Tristano - I Don't Stand A Chance With You
TTITLE19=Dizzy Gillespie and All Star Quintet (vocal Sarah Vaughan) - Lover Man
EXTD=YEAR: 2002
EXTT0=
EXTT1=
EXTT2=
EXTT3=
EXTT4=
EXTT5=
EXTT6=
EXTT7=
EXTT8=
EXTT9=
EXTT10=
EXTT11=
EXTT12=
EXTT13=
EXTT14=
EXTT15=
EXTT16=
EXTT17=
EXTT18=
EXTT19=
PLAYORDER=
